<svg version="1.2" xmlns="http://www.w3.org/2000/svg" viewBox="0 0 578 259" width="578" height="259"><style>tspan{white-space:pre}.a{mix-blend-mode:overlay;fill:#fff}.b{font-size: 106px;fill: #ffffff;font-weight: 400;font-family: "Candal", "Candal"}</style><path class="a" d="m110.9 203.2c0 26.2-18.3 48.8-44 54.3-25.6 5.5-51.5-7.7-62.2-31.6-10.7-23.9-3.2-52 17.9-67.5 21.2-15.4 50.3-14 69.8 3.5 2.9 2.6 5.5 5.5 7.8 8.6 2.3 3.2 4.2 6.5 5.8 10.1 1.6 3.5 2.8 7.2 3.6 11 0.8 3.8 1.3 7.7 1.3 11.6z"/><path class="a" d="m0 0h110.8v46.2h-110.8z"/><path class="a" d="m0 73.9h110.8v46.2h-110.8z"/><text style="transform:matrix(1,0,0,1,128,104.6)" ><tspan x="0" y="0" class="b">W</tspan><tspan  y="0" class="b">i</tspan><tspan  y="0" class="b">l</tspan><tspan  y="0" class="b">l</tspan><tspan  y="0" class="b">i</tspan><tspan  y="0" class="b">a</tspan><tspan  y="0" class="b">m</tspan><tspan  y="0" class="b">
</tspan><tspan x="0" y="127.2" class="b">G</tspan><tspan  y="127.2" class="b">r</tspan><tspan  y="127.2" class="b">e</tspan><tspan  y="127.2" class="b">e</tspan><tspan  y="127.2" class="b">r</tspan><tspan  y="127.2" class="b">
</tspan></text></svg>